<svg xmlns="http://www.w3.org/2000/svg" xmlns:xlink="http://www.w3.org/1999/xlink" width="500" zoomAndPan="magnify" viewBox="0 0 375 374.999991" height="500" preserveAspectRatio="xMidYMid meet" version="1.0"><defs><filter x="0%" y="0%" width="100%" height="100%" id="3fea0f003a"><feColorMatrix values="0 0 0 0 1 0 0 0 0 1 0 0 0 0 1 0 0 0 1 0" color-interpolation-filters="sRGB"/></filter><g/><mask id="445ab77adb"><g filter="url(#3fea0f003a)"><rect x="-37.5" width="450" fill="#000000" y="-37.499999" height="449.999989" fill-opacity="0.8"/></g></mask><clipPath id="58f18affa1"><path d="M 0.445312 0.605469 L 82.71875 0.605469 L 82.71875 66.558594 L 0.445312 66.558594 Z M 0.445312 0.605469 " clip-rule="nonzero"/></clipPath><clipPath id="154b6ea9b7"><rect x="0" width="83" y="0" height="67"/></clipPath><clipPath id="1adf69c054"><path d="M 187.5 142.605469 L 270 142.605469 L 270 208.605469 L 187.5 208.605469 Z M 187.5 142.605469 " clip-rule="nonzero"/></clipPath><clipPath id="c5d0495714"><path d="M 157.71875 142.605469 L 240 142.605469 L 240 208.605469 L 157.71875 208.605469 Z M 157.71875 142.605469 " clip-rule="nonzero"/></clipPath><clipPath id="c2d056a263"><path d="M 249.007812 142.605469 L 331.507812 142.605469 L 331.507812 208.605469 L 249.007812 208.605469 Z M 249.007812 142.605469 " clip-rule="nonzero"/></clipPath><mask id="c62a1566f5"><g filter="url(#3fea0f003a)"><rect x="-37.5" width="450" fill="#000000" y="-37.499999" height="449.999989" fill-opacity="0.83"/></g></mask><clipPath id="53bcecf0f4"><rect x="0" width="19" y="0" height="31"/></clipPath><mask id="875a98e2f8"><g filter="url(#3fea0f003a)"><rect x="-37.5" width="450" fill="#000000" y="-37.499999" height="449.999989" fill-opacity="0.6"/></g></mask><clipPath id="f1812a2f7c"><rect x="0" width="19" y="0" height="31"/></clipPath></defs><g mask="url(#445ab77adb)"><g transform="matrix(1, 0, 0, 1, 218, 142)"><g clip-path="url(#154b6ea9b7)"><g clip-path="url(#58f18affa1)"><path fill="#00305e" d="M 79.027344 20.710938 L 82.640625 21.546875 L 80.714844 15.285156 L 82.558594 13.59375 L 79.628906 13.578125 L 74.320312 8.339844 L 74.1875 8.238281 L 74.035156 8.121094 L 64.8125 0.621094 L 64.679688 0.671875 L 53.714844 5.207031 L 53.648438 5.191406 L 53.597656 5.257812 L 41.929688 16.023438 L 38.714844 18.097656 L 29.390625 18.816406 L 19.796875 18.816406 L 12.617188 24.527344 L 12.363281 25.714844 L 8.648438 26.417969 L 3.226562 30.519531 L 3.15625 30.535156 L 3.15625 30.585938 L 0.445312 32.628906 L 1.199219 41.871094 L 1.199219 41.902344 L 1.734375 48.664062 L 1.769531 48.699219 C 1.769531 48.699219 2.875 49.953125 3.976562 51.195312 C 4.53125 51.8125 6.671875 54.074219 6.671875 54.074219 C 6.671875 54.074219 5.285156 50.726562 4.046875 47.796875 L 2.40625 36.78125 L 2.957031 33.617188 L 11.195312 31.890625 L 14.492188 37.617188 L 14.558594 37.734375 L 21.941406 42.554688 L 22.710938 49.972656 L 22.828125 50.207031 L 24.804688 51.195312 L 32.351562 56.132812 L 32.402344 56.214844 L 33.945312 58.226562 L 33.945312 58.242188 L 33.960938 58.242188 L 34.011719 58.292969 L 34.964844 58.34375 L 35.433594 58.929688 L 35.234375 59.078125 L 34.832031 59.496094 L 35.082031 61.992188 L 38.714844 62.929688 L 39.082031 62.777344 L 39.082031 64.667969 L 40.371094 66.261719 L 45.328125 64.535156 L 40.90625 60.902344 L 35.902344 54.242188 L 33.375 47.828125 L 31.199219 38.773438 L 40.589844 40.078125 L 40.65625 40.113281 L 40.707031 40.078125 L 47.671875 38.871094 L 47.738281 38.941406 L 47.738281 38.921875 L 49.597656 40.378906 L 49.578125 40.414062 L 49.613281 40.414062 L 56.175781 48.582031 L 56.34375 51.914062 L 51.453125 56.199219 L 50.984375 55.160156 L 48.273438 55.949219 L 46.296875 59.328125 L 49.898438 59.210938 L 52.207031 58.425781 L 54.734375 58.542969 L 58 53.304688 L 59.640625 52.398438 L 59.773438 52.179688 L 60.277344 48.917969 L 55.972656 39.207031 L 56.023438 38.722656 L 58.199219 36.613281 L 67.222656 40.746094 L 67.257812 40.863281 L 67.308594 40.847656 L 69.535156 44.246094 L 69.867188 50.589844 L 69.851562 50.609375 L 69.867188 50.65625 L 69.265625 51.359375 L 68.042969 51.242188 L 67.808594 51.359375 L 67.023438 53.203125 L 67.574219 55.765625 L 69.652344 56.515625 L 70.957031 54.308594 L 71.039062 54.074219 L 72.714844 49.4375 L 72.730469 49.269531 L 71.527344 42.972656 L 70.421875 39.273438 L 70.453125 39.007812 L 70.269531 39.089844 L 66.21875 36.292969 L 66.203125 36.246094 L 66.167969 36.246094 L 63.023438 32.042969 L 64.328125 30.152344 L 64.511719 26.453125 L 63.289062 23.992188 L 64.695312 20.976562 L 64.710938 20.976562 L 64.730469 20.925781 L 66.488281 19.519531 L 67.40625 20.105469 L 67.023438 20.859375 L 67.003906 20.910156 L 67.507812 24.859375 L 68.863281 26.265625 L 70.335938 30.835938 L 69.515625 33.902344 L 70.570312 34.488281 L 71.59375 35.355469 L 71.710938 35.808594 L 71.792969 35.40625 L 75.058594 34.269531 L 77.035156 30.066406 L 77.132812 28.074219 L 78.089844 23.554688 L 78.238281 23.421875 L 79.226562 22.566406 Z M 67.609375 54.441406 L 67.339844 53.234375 L 67.726562 52.347656 Z M 81.972656 13.796875 L 80.597656 14.933594 L 80.449219 14.433594 L 80.429688 14.398438 L 79.828125 13.796875 Z M 73.886719 8.421875 L 75.609375 14.699219 L 67.925781 6.414062 L 73.871094 8.40625 Z M 73.132812 7.800781 L 67.472656 5.910156 L 65.265625 1.425781 Z M 64.710938 1.074219 L 67.074219 5.859375 L 58.871094 6.011719 Z M 63.859375 1.375 L 58.367188 6.027344 L 54.332031 5.308594 Z M 53.8125 5.558594 L 57.949219 6.296875 L 50.214844 10.882812 Z M 52.792969 6.480469 L 49.578125 11.25 L 47.957031 10.949219 Z M 47.636719 11.234375 L 49.160156 11.503906 L 46.398438 13.144531 L 43.585938 14.949219 Z M 46.566406 13.445312 L 49.664062 11.601562 L 49.78125 11.535156 L 58.453125 6.378906 L 58.46875 6.378906 L 58.484375 6.363281 L 67.273438 6.195312 L 75.746094 15.320312 L 74.621094 17.628906 L 69.164062 17.058594 L 67.542969 13.34375 L 67.507812 13.261719 L 66.019531 9.84375 L 59.707031 8.972656 L 54.382812 11.101562 L 54.132812 11.199219 L 43.386719 15.488281 Z M 75.996094 15.605469 L 76.179688 15.503906 L 78.136719 15.738281 L 75.058594 17.496094 Z M 48.84375 26.820312 L 45.042969 36.246094 L 32.253906 36.144531 L 25.355469 32.527344 L 17.121094 27.222656 L 18.023438 24.660156 L 33.191406 20.140625 L 50.449219 22.667969 L 50.515625 22.683594 L 48.875 26.769531 L 48.84375 26.785156 Z M 26.210938 35.425781 L 16.382812 37.097656 L 25.1875 32.914062 Z M 50.816406 22.800781 L 54.867188 24.273438 L 51.539062 33.632812 L 49.195312 26.820312 Z M 50.953125 22.5 L 52.023438 19.855469 L 54.683594 23.839844 Z M 51.65625 34.386719 L 55.90625 36.695312 L 55.65625 39.074219 L 50.066406 39.960938 Z M 51.753906 34.066406 L 54.984375 24.976562 L 55.890625 36.328125 Z M 52.191406 19.519531 L 57.765625 14.53125 L 60.492188 21.34375 L 55.136719 23.957031 Z M 52.425781 18.867188 C 52.742188 17.445312 53.695312 13.964844 54.367188 11.550781 L 57.5625 14.265625 Z M 54.667969 11.351562 L 59.742188 9.324219 L 65.800781 10.164062 L 67.171875 13.308594 L 57.898438 14.097656 Z M 54.015625 11.601562 C 53.8125 12.289062 53.414062 13.761719 53.011719 15.234375 C 52.339844 17.730469 52.089844 18.769531 52.023438 19.21875 L 51.957031 19.269531 L 42.363281 16.238281 Z M 41.878906 16.457031 L 51.753906 19.570312 L 50.632812 22.351562 L 50.515625 22.332031 L 39.132812 18.214844 Z M 38.816406 18.464844 L 48.875 22.097656 L 33.960938 19.90625 Z M 19.980469 19.152344 L 29.421875 19.152344 L 37.441406 18.535156 L 33.171875 19.804688 L 33.105469 19.789062 L 33.105469 19.820312 L 18.175781 24.273438 Z M 19.496094 19.488281 L 16.835938 27.039062 L 13.066406 24.609375 Z M 8.78125 26.734375 L 12.296875 26.066406 L 11.746094 28.644531 L 8.230469 29.414062 L 3.996094 30.351562 Z M 5.785156 52.699219 C 4.882812 51.695312 3.273438 49.871094 2.070312 48.515625 L 1.617188 42.890625 C 2.738281 45.570312 4.882812 50.609375 5.785156 52.699219 Z M 3.527344 46.558594 C 2.804688 44.867188 2.085938 43.160156 1.535156 41.835938 L 2.21875 37.835938 Z M 2.65625 33.382812 L 2.605469 33.699219 L 1.417969 40.546875 L 0.796875 32.796875 L 3.058594 31.089844 Z M 3.441406 30.820312 L 7.542969 29.917969 L 3.039062 33.097656 Z M 11.125 31.558594 L 3.558594 33.148438 L 8.382812 29.734375 L 11.679688 29.011719 Z M 11.445312 31.675781 L 12.882812 24.894531 L 24.921875 32.664062 L 14.777344 37.484375 Z M 15.042969 37.667969 L 26.109375 35.792969 L 22.042969 42.238281 Z M 26.308594 36.09375 L 26.628906 42.574219 L 26.644531 42.757812 L 26.828125 46.488281 L 22.324219 42.4375 Z M 22.308594 42.890625 L 26.746094 46.875 L 23.011719 49.753906 Z M 26.945312 47.140625 L 28.835938 51.007812 L 23.28125 49.972656 Z M 27.011719 43.710938 L 29.65625 50.375 L 30.828125 51.996094 L 29.257812 51.109375 L 27.214844 46.925781 L 27.164062 46.792969 Z M 24.972656 50.925781 L 24.015625 50.441406 L 29.023438 51.378906 L 31.835938 55.414062 Z M 29.691406 51.746094 L 31.296875 52.648438 L 31.398438 52.71875 L 35.097656 54.792969 L 32.539062 55.832031 Z M 32.738281 56.117188 L 35.183594 55.109375 L 34.09375 57.890625 Z M 34.480469 57.855469 L 35.550781 55.128906 L 37.425781 57.488281 Z M 35.183594 58.109375 L 36.773438 57.90625 L 35.683594 58.742188 Z M 44.605469 64.453125 L 40.4375 65.910156 L 39.484375 64.738281 L 42.3125 62.578125 Z M 40.605469 61.152344 L 42.0625 62.34375 L 39.382812 64.386719 L 39.382812 62.660156 L 40.035156 62.375 L 39.132812 59.210938 Z M 39.636719 62.191406 L 38.648438 62.609375 L 35.351562 61.757812 L 35.148438 59.664062 L 35.703125 59.164062 L 38.847656 59.480469 Z M 36.085938 58.859375 L 37.578125 57.707031 L 38.699219 59.128906 Z M 37.859375 57.503906 L 37.945312 57.605469 Z M 35.769531 54.726562 L 37.828125 57.453125 L 35.71875 54.792969 Z M 33.054688 47.914062 L 35.550781 54.425781 L 35.566406 54.441406 L 35.652344 54.558594 L 35.515625 54.609375 L 31.53125 52.367188 C 32.46875 49.769531 32.871094 48.429688 33.023438 47.726562 Z M 31.28125 52.046875 L 29.976562 50.222656 L 26.960938 42.671875 L 26.8125 39.660156 C 28.015625 41.183594 32.351562 46.640625 32.773438 47.125 C 32.820312 47.492188 32.070312 49.835938 31.28125 52.046875 Z M 32.722656 46.539062 C 31.648438 45.21875 28.234375 40.914062 26.796875 39.089844 L 26.644531 35.875 L 30.828125 38.671875 Z M 30.914062 38.335938 L 26.578125 35.441406 L 25.589844 33.03125 L 31.984375 36.378906 Z M 31.230469 38.4375 L 32.285156 36.527344 L 39.402344 39.558594 Z M 40.605469 39.710938 L 33.054688 36.480469 L 44.691406 36.5625 Z M 41.257812 39.625 L 45.160156 36.628906 L 47.335938 38.570312 Z M 47.6875 38.4375 L 45.359375 36.363281 L 49.011719 27.289062 L 51.355469 34.101562 Z M 47.957031 38.65625 L 51.1875 34.839844 L 49.714844 40.011719 Z M 49.78125 58.878906 L 46.882812 58.976562 L 48.492188 56.234375 L 50.800781 55.5625 L 51.203125 56.46875 Z M 52.15625 58.089844 L 50.265625 58.742188 L 51.453125 56.703125 L 54.082031 58.175781 Z M 54.46875 58.023438 L 51.671875 56.449219 L 56.175781 52.484375 Z M 57.75 53.070312 L 55.003906 57.488281 L 56.660156 52.148438 L 59.054688 52.367188 Z M 56.695312 51.8125 L 56.558594 48.984375 L 59.203125 52.046875 Z M 59.925781 48.96875 L 59.488281 51.847656 L 56.527344 48.429688 L 56.023438 40.144531 Z M 56.15625 47.996094 L 49.996094 40.347656 L 55.640625 39.441406 Z M 57.984375 36.363281 L 56.089844 38.203125 L 56.226562 36.878906 L 56.257812 36.695312 L 58.050781 35.472656 C 57.984375 35.976562 57.964844 36.226562 57.984375 36.363281 Z M 69.382812 51.695312 L 69.933594 51.042969 L 70.539062 53.503906 L 68.445312 51.613281 Z M 70.636719 54.140625 L 69.484375 56.117188 L 67.894531 55.53125 L 68.109375 51.761719 L 70.6875 54.074219 Z M 70.871094 53.503906 L 70.203125 50.773438 L 72.246094 49.6875 Z M 70.167969 50.421875 L 69.886719 44.898438 L 72.328125 49.269531 Z M 70.304688 40.128906 L 71.175781 43.058594 L 72.179688 48.347656 L 69.835938 44.164062 Z M 69.566406 43.710938 L 67.609375 40.699219 L 70.035156 39.574219 Z M 69.902344 39.257812 L 67.457031 40.378906 L 66.351562 36.8125 Z M 67.089844 40.3125 L 58.316406 36.292969 C 58.316406 36.128906 58.367188 35.660156 58.417969 35.238281 L 65.933594 36.5625 Z M 65.667969 36.175781 L 58.804688 34.972656 L 62.738281 32.292969 Z M 64.144531 26.550781 L 63.976562 30.066406 L 62.703125 31.910156 L 58.335938 34.886719 L 58.117188 35.023438 C 58.117188 35.023438 58.117188 35.039062 58.117188 35.039062 L 56.242188 36.3125 L 55.289062 24.273438 L 60.695312 21.648438 L 62.953125 24.109375 Z M 63.023438 23.722656 L 61.046875 21.546875 L 64.277344 21.0625 Z M 64.445312 20.691406 L 60.828125 21.246094 L 58.082031 14.398438 L 67.089844 13.628906 Z M 66.253906 19.285156 L 64.929688 20.339844 L 66.871094 15.152344 Z M 66.605469 19.238281 L 67.40625 13.847656 L 68.878906 17.210938 L 67.542969 19.820312 Z M 69.148438 17.410156 L 74.621094 17.980469 L 77.667969 23.253906 C 76.296875 23.640625 74.269531 24.191406 73.871094 24.242188 L 73.667969 24.175781 L 67.355469 20.910156 Z M 67.777344 24.742188 L 67.339844 21.261719 L 73.316406 24.359375 L 69.046875 26.066406 Z M 70.722656 34.269531 L 69.851562 33.785156 L 70.472656 31.472656 L 71.390625 34.839844 Z M 71.609375 34.402344 L 69.398438 26.300781 L 73.566406 24.625 Z M 76.75 28.042969 L 76.648438 30.015625 L 74.773438 34.035156 L 71.828125 35.074219 L 73.9375 24.542969 C 74.304688 24.492188 75.226562 24.273438 77.6875 23.589844 Z M 78.003906 23.152344 L 74.972656 17.929688 L 78.273438 16.039062 L 77.183594 18.164062 L 78.605469 19.972656 L 78.808594 22.449219 Z M 78.941406 19.839844 L 77.585938 18.113281 L 78.925781 15.488281 L 76.078125 15.152344 L 74.355469 8.839844 L 80.148438 14.566406 L 82.140625 21.09375 L 78.992188 20.359375 Z M 78.941406 19.839844 " fill-opacity="1" fill-rule="nonzero"/></g></g></g></g><g clip-path="url(#1adf69c054)"><path fill="#818bac" d="M 266.078125 162.710938 L 269.695312 163.546875 L 267.769531 157.285156 L 269.613281 155.59375 L 266.683594 155.578125 L 261.375 150.339844 L 261.242188 150.238281 L 261.089844 150.121094 L 251.867188 142.621094 L 251.734375 142.671875 L 240.769531 147.207031 L 240.699219 147.191406 L 240.652344 147.257812 L 228.984375 158.023438 L 225.769531 160.097656 L 216.445312 160.816406 L 206.851562 160.816406 L 199.671875 166.527344 L 199.417969 167.714844 L 195.703125 168.417969 L 190.277344 172.519531 L 190.210938 172.535156 L 190.210938 172.585938 L 187.5 174.628906 L 188.253906 183.871094 L 188.253906 183.902344 L 188.789062 190.664062 L 188.824219 190.699219 C 188.824219 190.699219 189.925781 191.953125 191.03125 193.195312 C 191.585938 193.8125 193.726562 196.074219 193.726562 196.074219 C 193.726562 196.074219 192.339844 192.726562 191.097656 189.796875 L 189.457031 178.78125 L 190.011719 175.617188 L 198.246094 173.890625 L 201.546875 179.617188 L 201.613281 179.734375 L 208.996094 184.554688 L 209.765625 191.972656 L 209.882812 192.207031 L 211.855469 193.195312 L 219.40625 198.132812 L 219.457031 198.214844 L 220.996094 200.226562 L 220.996094 200.242188 L 221.015625 200.242188 L 221.066406 200.292969 L 222.019531 200.34375 L 222.488281 200.929688 L 222.285156 201.078125 L 221.882812 201.496094 L 222.136719 203.992188 L 225.769531 204.929688 L 226.136719 204.777344 L 226.136719 206.667969 L 227.425781 208.261719 L 232.382812 206.535156 L 227.960938 202.902344 L 222.957031 196.242188 L 220.429688 189.828125 L 218.253906 180.773438 L 227.644531 182.078125 L 227.710938 182.113281 L 227.761719 182.078125 L 234.726562 180.871094 L 234.792969 180.941406 L 234.792969 180.921875 L 236.648438 182.378906 L 236.632812 182.414062 L 236.667969 182.414062 L 243.230469 190.582031 L 243.394531 193.914062 L 238.507812 198.199219 L 238.039062 197.160156 L 235.328125 197.949219 L 233.351562 201.328125 L 236.949219 201.210938 L 239.261719 200.425781 L 241.789062 200.542969 L 245.054688 195.304688 L 246.695312 194.398438 L 246.828125 194.179688 L 247.332031 190.917969 L 243.027344 181.207031 L 243.078125 180.722656 L 245.253906 178.613281 L 254.277344 182.746094 L 254.3125 182.863281 L 254.359375 182.847656 L 256.585938 186.246094 L 256.921875 192.589844 L 256.90625 192.609375 L 256.921875 192.65625 L 256.320312 193.359375 L 255.097656 193.242188 L 254.863281 193.359375 L 254.078125 195.203125 L 254.628906 197.765625 L 256.703125 198.515625 L 258.011719 196.308594 L 258.09375 196.074219 L 259.769531 191.4375 L 259.785156 191.269531 L 258.578125 184.972656 L 257.476562 181.273438 L 257.507812 181.007812 L 257.324219 181.089844 L 253.273438 178.292969 L 253.257812 178.246094 L 253.222656 178.246094 L 250.074219 174.042969 L 251.382812 172.152344 L 251.566406 168.453125 L 250.34375 165.992188 L 251.75 162.976562 L 251.765625 162.976562 L 251.78125 162.925781 L 253.539062 161.519531 L 254.460938 162.105469 L 254.078125 162.859375 L 254.058594 162.910156 L 254.5625 166.859375 L 255.917969 168.265625 L 257.390625 172.835938 L 256.570312 175.902344 L 257.625 176.488281 L 258.648438 177.355469 L 258.765625 177.808594 L 258.847656 177.40625 L 262.113281 176.269531 L 264.085938 172.066406 L 264.1875 170.074219 L 265.140625 165.554688 L 265.292969 165.421875 L 266.28125 164.566406 Z M 254.664062 196.441406 L 254.394531 195.234375 L 254.78125 194.347656 Z M 269.027344 155.796875 L 267.652344 156.933594 L 267.503906 156.433594 L 267.484375 156.398438 L 266.882812 155.796875 Z M 260.941406 150.421875 L 262.664062 156.699219 L 254.980469 148.414062 L 260.921875 150.40625 Z M 260.1875 149.800781 L 254.527344 147.910156 L 252.320312 143.425781 Z M 251.765625 143.074219 L 254.125 147.859375 L 245.925781 148.011719 Z M 250.914062 143.375 L 245.421875 148.027344 L 241.386719 147.308594 Z M 240.867188 147.558594 L 245.003906 148.296875 L 237.269531 152.882812 Z M 239.847656 148.480469 L 236.632812 153.25 L 235.007812 152.949219 Z M 234.691406 153.234375 L 236.214844 153.503906 L 233.453125 155.144531 L 230.640625 156.949219 Z M 233.621094 155.445312 L 236.714844 153.601562 L 236.832031 153.535156 L 245.503906 148.378906 L 245.523438 148.378906 L 245.539062 148.363281 L 254.328125 148.195312 L 262.796875 157.320312 L 261.675781 159.628906 L 256.21875 159.058594 L 254.59375 155.34375 L 254.5625 155.261719 L 253.070312 151.84375 L 246.761719 150.972656 L 241.4375 153.101562 L 241.1875 153.199219 L 230.4375 157.488281 Z M 263.050781 157.605469 L 263.234375 157.503906 L 265.191406 157.738281 L 262.113281 159.496094 Z M 235.894531 168.820312 L 232.097656 178.246094 L 219.308594 178.144531 L 212.410156 174.527344 L 204.171875 169.222656 L 205.078125 166.660156 L 220.246094 162.140625 L 237.503906 164.667969 L 237.570312 164.683594 L 235.929688 168.769531 L 235.894531 168.785156 Z M 213.261719 177.425781 L 203.4375 179.097656 L 212.242188 174.914062 Z M 237.871094 164.800781 L 241.921875 166.273438 L 238.589844 175.632812 L 236.246094 168.820312 Z M 238.003906 164.5 L 239.078125 161.855469 L 241.738281 165.839844 Z M 238.707031 176.386719 L 242.960938 178.695312 L 242.710938 181.074219 L 237.117188 181.960938 Z M 238.808594 176.066406 L 242.039062 166.976562 L 242.945312 178.328125 Z M 239.246094 161.519531 L 244.820312 156.53125 L 247.546875 163.34375 L 242.191406 165.957031 Z M 239.480469 160.867188 C 239.796875 159.445312 240.75 155.964844 241.421875 153.550781 L 244.617188 156.265625 Z M 241.722656 153.351562 L 246.792969 151.324219 L 252.855469 152.164062 L 254.226562 155.308594 L 244.953125 156.097656 Z M 241.070312 153.601562 C 240.867188 154.289062 240.464844 155.761719 240.066406 157.234375 C 239.394531 159.730469 239.144531 160.769531 239.078125 161.21875 L 239.011719 161.269531 L 229.417969 158.238281 Z M 228.933594 158.457031 L 238.808594 161.570312 L 237.6875 164.351562 L 237.570312 164.332031 L 226.1875 160.214844 Z M 225.867188 160.464844 L 235.929688 164.097656 L 221.015625 161.90625 Z M 207.035156 161.152344 L 216.476562 161.152344 L 224.496094 160.535156 L 220.226562 161.804688 L 220.160156 161.789062 L 220.160156 161.820312 L 205.226562 166.273438 Z M 206.550781 161.488281 L 203.890625 169.039062 L 200.121094 166.609375 Z M 195.835938 168.734375 L 199.351562 168.066406 L 198.800781 170.644531 L 195.285156 171.414062 L 191.050781 172.351562 Z M 192.839844 194.699219 C 191.9375 193.695312 190.328125 191.871094 189.125 190.515625 L 188.671875 184.890625 C 189.792969 187.570312 191.9375 192.609375 192.839844 194.699219 Z M 190.582031 188.558594 C 189.859375 186.867188 189.140625 185.160156 188.589844 183.835938 L 189.273438 179.835938 Z M 189.710938 175.382812 L 189.660156 175.699219 L 188.472656 182.546875 L 187.851562 174.796875 L 190.113281 173.089844 Z M 190.496094 172.820312 L 194.597656 171.917969 L 190.09375 175.097656 Z M 198.179688 173.558594 L 190.613281 175.148438 L 195.433594 171.734375 L 198.734375 171.011719 Z M 198.5 173.675781 L 199.9375 166.894531 L 211.972656 174.664062 L 201.828125 179.484375 Z M 202.097656 179.667969 L 213.164062 177.792969 L 209.09375 184.238281 Z M 213.363281 178.09375 L 213.683594 184.574219 L 213.699219 184.757812 L 213.882812 188.488281 L 209.378906 184.4375 Z M 209.363281 184.890625 L 213.800781 188.875 L 210.066406 191.753906 Z M 214 189.140625 L 215.890625 193.007812 L 210.332031 191.972656 Z M 214.066406 185.710938 L 216.710938 192.375 L 217.882812 193.996094 L 216.308594 193.109375 L 214.269531 188.925781 L 214.21875 188.792969 Z M 212.023438 192.925781 L 211.070312 192.441406 L 216.074219 193.378906 L 218.886719 197.414062 Z M 216.746094 193.746094 L 218.351562 194.648438 L 218.453125 194.71875 L 222.152344 196.792969 L 219.589844 197.832031 Z M 219.792969 198.117188 L 222.234375 197.109375 L 221.148438 199.890625 Z M 221.53125 199.855469 L 222.605469 197.128906 L 224.480469 199.488281 Z M 222.234375 200.109375 L 223.828125 199.90625 L 222.738281 200.742188 Z M 231.660156 206.453125 L 227.492188 207.910156 L 226.539062 206.738281 L 229.367188 204.578125 Z M 227.660156 203.152344 L 229.117188 204.34375 L 226.4375 206.386719 L 226.4375 204.660156 L 227.089844 204.375 L 226.1875 201.210938 Z M 226.6875 204.191406 L 225.703125 204.609375 L 222.402344 203.757812 L 222.203125 201.664062 L 222.753906 201.164062 L 225.902344 201.480469 Z M 223.140625 200.859375 L 224.628906 199.707031 L 225.75 201.128906 Z M 224.914062 199.503906 L 225 199.605469 Z M 222.820312 196.726562 L 224.882812 199.453125 L 222.773438 196.792969 Z M 220.109375 189.914062 L 222.605469 196.425781 L 222.621094 196.441406 L 222.703125 196.558594 L 222.570312 196.609375 L 218.585938 194.367188 C 219.523438 191.769531 219.925781 190.429688 220.078125 189.726562 Z M 218.335938 194.046875 L 217.03125 192.222656 L 214.015625 184.671875 L 213.867188 181.660156 C 215.070312 183.183594 219.40625 188.640625 219.824219 189.125 C 219.875 189.492188 219.121094 191.835938 218.335938 194.046875 Z M 219.777344 188.539062 C 218.703125 187.21875 215.289062 182.914062 213.847656 181.089844 L 213.699219 177.875 L 217.882812 180.671875 Z M 217.96875 180.335938 L 213.632812 177.441406 L 212.644531 175.03125 L 219.039062 178.378906 Z M 218.285156 180.4375 L 219.339844 178.527344 L 226.453125 181.558594 Z M 227.660156 181.710938 L 220.109375 178.480469 L 231.746094 178.5625 Z M 228.3125 181.625 L 232.214844 178.628906 L 234.390625 180.570312 Z M 234.742188 180.4375 L 232.414062 178.363281 L 236.0625 169.289062 L 238.40625 176.101562 Z M 235.007812 180.65625 L 238.238281 176.839844 L 236.765625 182.011719 Z M 236.832031 200.878906 L 233.9375 200.976562 L 235.542969 198.234375 L 237.855469 197.5625 L 238.257812 198.46875 Z M 239.210938 200.089844 L 237.320312 200.742188 L 238.507812 198.703125 L 241.136719 200.175781 Z M 241.519531 200.023438 L 238.726562 198.449219 L 243.230469 194.484375 Z M 244.800781 195.070312 L 242.058594 199.488281 L 243.714844 194.148438 L 246.109375 194.367188 Z M 243.746094 193.8125 L 243.613281 190.984375 L 246.257812 194.046875 Z M 246.980469 190.96875 L 246.542969 193.847656 L 243.582031 190.429688 L 243.078125 182.144531 Z M 243.210938 189.996094 L 237.050781 182.347656 L 242.691406 181.441406 Z M 245.035156 178.363281 L 243.144531 180.203125 L 243.277344 178.878906 L 243.3125 178.695312 L 245.105469 177.472656 C 245.035156 177.976562 245.019531 178.226562 245.035156 178.363281 Z M 256.4375 193.695312 L 256.988281 193.042969 L 257.59375 195.503906 L 255.5 193.613281 Z M 257.691406 196.140625 L 256.539062 198.117188 L 254.945312 197.53125 L 255.164062 193.761719 L 257.742188 196.074219 Z M 257.925781 195.503906 L 257.257812 192.773438 L 259.300781 191.6875 Z M 257.222656 192.421875 L 256.9375 186.898438 L 259.382812 191.269531 Z M 257.359375 182.128906 L 258.226562 185.058594 L 259.234375 190.347656 L 256.890625 186.164062 Z M 256.621094 185.710938 L 254.664062 182.699219 L 257.089844 181.574219 Z M 256.957031 181.257812 L 254.511719 182.378906 L 253.40625 178.8125 Z M 254.144531 182.3125 L 245.371094 178.292969 C 245.371094 178.128906 245.421875 177.660156 245.472656 177.238281 L 252.988281 178.5625 Z M 252.71875 178.175781 L 245.855469 176.972656 L 249.789062 174.292969 Z M 251.195312 168.550781 L 251.03125 172.066406 L 249.757812 173.910156 L 245.386719 176.886719 L 245.171875 177.023438 C 245.171875 177.023438 245.171875 177.039062 245.171875 177.039062 L 243.296875 178.3125 L 242.339844 166.273438 L 247.75 163.648438 L 250.007812 166.109375 Z M 250.074219 165.722656 L 248.101562 163.546875 L 251.332031 163.0625 Z M 251.5 162.691406 L 247.882812 163.246094 L 245.136719 156.398438 L 254.144531 155.628906 Z M 253.304688 161.285156 L 251.984375 162.339844 L 253.925781 157.152344 Z M 253.65625 161.238281 L 254.460938 155.847656 L 255.933594 159.210938 L 254.59375 161.820312 Z M 256.203125 159.410156 L 261.675781 159.980469 L 264.722656 165.253906 C 263.351562 165.640625 261.324219 166.191406 260.921875 166.242188 L 260.722656 166.175781 L 254.410156 162.910156 Z M 254.828125 166.742188 L 254.394531 163.261719 L 260.371094 166.359375 L 256.101562 168.066406 Z M 257.777344 176.269531 L 256.90625 175.785156 L 257.523438 173.472656 L 258.445312 176.839844 Z M 258.664062 176.402344 L 256.453125 168.300781 L 260.621094 166.625 Z M 263.800781 170.042969 L 263.703125 172.015625 L 261.828125 176.035156 L 258.882812 177.074219 L 260.992188 166.542969 C 261.359375 166.492188 262.28125 166.273438 264.738281 165.589844 Z M 265.058594 165.152344 L 262.027344 159.929688 L 265.324219 158.039062 L 264.238281 160.164062 L 265.660156 161.972656 L 265.863281 164.449219 Z M 265.996094 161.839844 L 264.640625 160.113281 L 265.980469 157.488281 L 263.132812 157.152344 L 261.410156 150.839844 L 267.199219 156.566406 L 269.191406 163.09375 L 266.046875 162.359375 Z M 265.996094 161.839844 " fill-opacity="1" fill-rule="nonzero"/></g><g clip-path="url(#c5d0495714)"><path fill="#c1d3e0" d="M 236.300781 162.710938 L 239.914062 163.546875 L 237.988281 157.285156 L 239.832031 155.59375 L 236.902344 155.578125 L 231.59375 150.339844 L 231.460938 150.238281 L 231.308594 150.121094 L 222.085938 142.621094 L 221.953125 142.671875 L 210.988281 147.207031 L 210.921875 147.191406 L 210.871094 147.257812 L 199.203125 158.023438 L 195.988281 160.097656 L 186.664062 160.816406 L 177.070312 160.816406 L 169.890625 166.527344 L 169.640625 167.714844 L 165.921875 168.417969 L 160.5 172.519531 L 160.433594 172.535156 L 160.433594 172.585938 L 157.71875 174.628906 L 158.472656 183.871094 L 158.472656 183.902344 L 159.007812 190.664062 L 159.042969 190.699219 C 159.042969 190.699219 160.148438 191.953125 161.253906 193.195312 C 161.804688 193.8125 163.945312 196.074219 163.945312 196.074219 C 163.945312 196.074219 162.558594 192.726562 161.320312 189.796875 L 159.679688 178.78125 L 160.230469 175.617188 L 168.46875 173.890625 L 171.765625 179.617188 L 171.832031 179.734375 L 179.214844 184.554688 L 179.984375 191.972656 L 180.101562 192.207031 L 182.078125 193.195312 L 189.625 198.132812 L 189.675781 198.214844 L 191.21875 200.226562 L 191.21875 200.242188 L 191.234375 200.242188 L 191.285156 200.292969 L 192.238281 200.34375 L 192.707031 200.929688 L 192.507812 201.078125 L 192.105469 201.496094 L 192.355469 203.992188 L 195.988281 204.929688 L 196.355469 204.777344 L 196.355469 206.667969 L 197.644531 208.261719 L 202.601562 206.535156 L 198.179688 202.902344 L 193.175781 196.242188 L 190.648438 189.828125 L 188.472656 180.773438 L 197.863281 182.078125 L 197.929688 182.113281 L 197.980469 182.078125 L 204.945312 180.871094 L 205.011719 180.941406 L 205.011719 180.921875 L 206.871094 182.378906 L 206.851562 182.414062 L 206.886719 182.414062 L 213.449219 190.582031 L 213.617188 193.914062 L 208.726562 198.199219 L 208.257812 197.160156 L 205.546875 197.949219 L 203.570312 201.328125 L 207.171875 201.210938 L 209.480469 200.425781 L 212.007812 200.542969 L 215.273438 195.304688 L 216.914062 194.398438 L 217.046875 194.179688 L 217.550781 190.917969 L 213.246094 181.207031 L 213.296875 180.722656 L 215.472656 178.613281 L 224.496094 182.746094 L 224.53125 182.863281 L 224.582031 182.847656 L 226.808594 186.246094 L 227.140625 192.589844 L 227.125 192.609375 L 227.140625 192.65625 L 226.539062 193.359375 L 225.316406 193.242188 L 225.082031 193.359375 L 224.296875 195.203125 L 224.847656 197.765625 L 226.925781 198.515625 L 228.230469 196.308594 L 228.3125 196.074219 L 229.988281 191.4375 L 230.003906 191.269531 L 228.800781 184.972656 L 227.695312 181.273438 L 227.726562 181.007812 L 227.542969 181.089844 L 223.492188 178.292969 L 223.476562 178.246094 L 223.441406 178.246094 L 220.296875 174.042969 L 221.601562 172.152344 L 221.785156 168.453125 L 220.5625 165.992188 L 221.96875 162.976562 L 221.984375 162.976562 L 222.003906 162.925781 L 223.761719 161.519531 L 224.679688 162.105469 L 224.296875 162.859375 L 224.28125 162.910156 L 224.78125 166.859375 L 226.136719 168.265625 L 227.609375 172.835938 L 226.789062 175.902344 L 227.84375 176.488281 L 228.867188 177.355469 L 228.984375 177.808594 L 229.066406 177.40625 L 232.332031 176.269531 L 234.308594 172.066406 L 234.40625 170.074219 L 235.363281 165.554688 L 235.511719 165.421875 L 236.5 164.566406 Z M 224.882812 196.441406 L 224.613281 195.234375 L 225 194.347656 Z M 239.246094 155.796875 L 237.871094 156.933594 L 237.722656 156.433594 L 237.707031 156.398438 L 237.101562 155.796875 Z M 231.160156 150.421875 L 232.882812 156.699219 L 225.199219 148.414062 L 231.144531 150.40625 Z M 230.40625 149.800781 L 224.75 147.910156 L 222.539062 143.425781 Z M 221.984375 143.074219 L 224.347656 147.859375 L 216.144531 148.011719 Z M 221.132812 143.375 L 215.640625 148.027344 L 211.605469 147.308594 Z M 211.089844 147.558594 L 215.222656 148.296875 L 207.488281 152.882812 Z M 210.066406 148.480469 L 206.851562 153.25 L 205.230469 152.949219 Z M 204.910156 153.234375 L 206.433594 153.503906 L 203.671875 155.144531 L 200.859375 156.949219 Z M 203.839844 155.445312 L 206.9375 153.601562 L 207.054688 153.535156 L 215.726562 148.378906 L 215.742188 148.378906 L 215.757812 148.363281 L 224.546875 148.195312 L 233.019531 157.320312 L 231.894531 159.628906 L 226.4375 159.058594 L 224.816406 155.34375 L 224.78125 155.261719 L 223.292969 151.84375 L 216.980469 150.972656 L 211.65625 153.101562 L 211.40625 153.199219 L 200.660156 157.488281 Z M 233.269531 157.605469 L 233.453125 157.503906 L 235.410156 157.738281 L 232.332031 159.496094 Z M 206.117188 168.820312 L 202.316406 178.246094 L 189.527344 178.144531 L 182.628906 174.527344 L 174.394531 169.222656 L 175.296875 166.660156 L 190.464844 162.140625 L 207.722656 164.667969 L 207.789062 164.683594 L 206.148438 168.769531 L 206.117188 168.785156 Z M 183.484375 177.425781 L 173.65625 179.097656 L 182.460938 174.914062 Z M 208.089844 164.800781 L 212.144531 166.273438 L 208.8125 175.632812 L 206.46875 168.820312 Z M 208.226562 164.5 L 209.296875 161.855469 L 211.957031 165.839844 Z M 208.929688 176.386719 L 213.179688 178.695312 L 212.929688 181.074219 L 207.339844 181.960938 Z M 209.027344 176.066406 L 212.261719 166.976562 L 213.164062 178.328125 Z M 209.464844 161.519531 L 215.039062 156.53125 L 217.765625 163.34375 L 212.410156 165.957031 Z M 209.699219 160.867188 C 210.015625 159.445312 210.972656 155.964844 211.640625 153.550781 L 214.839844 156.265625 Z M 211.941406 153.351562 L 217.015625 151.324219 L 223.074219 152.164062 L 224.445312 155.308594 L 215.171875 156.097656 Z M 211.289062 153.601562 C 211.089844 154.289062 210.6875 155.761719 210.285156 157.234375 C 209.613281 159.730469 209.363281 160.769531 209.296875 161.21875 L 209.230469 161.269531 L 199.636719 158.238281 Z M 199.152344 158.457031 L 209.027344 161.570312 L 207.90625 164.351562 L 207.789062 164.332031 L 196.40625 160.214844 Z M 196.089844 160.464844 L 206.148438 164.097656 L 191.234375 161.90625 Z M 177.253906 161.152344 L 186.699219 161.152344 L 194.714844 160.535156 L 190.445312 161.804688 L 190.378906 161.789062 L 190.378906 161.820312 L 175.449219 166.273438 Z M 176.769531 161.488281 L 174.109375 169.039062 L 170.34375 166.609375 Z M 166.054688 168.734375 L 169.570312 168.066406 L 169.019531 170.644531 L 165.503906 171.414062 L 161.269531 172.351562 Z M 163.058594 194.699219 C 162.15625 193.695312 160.550781 191.871094 159.34375 190.515625 L 158.890625 184.890625 C 160.011719 187.570312 162.15625 192.609375 163.058594 194.699219 Z M 160.800781 188.558594 C 160.082031 186.867188 159.359375 185.160156 158.808594 183.835938 L 159.496094 179.835938 Z M 159.929688 175.382812 L 159.878906 175.699219 L 158.691406 182.546875 L 158.070312 174.796875 L 160.332031 173.089844 Z M 160.714844 172.820312 L 164.816406 171.917969 L 160.316406 175.097656 Z M 168.398438 173.558594 L 160.832031 175.148438 L 165.65625 171.734375 L 168.953125 171.011719 Z M 168.71875 173.675781 L 170.15625 166.894531 L 182.195312 174.664062 L 172.050781 179.484375 Z M 172.316406 179.667969 L 183.382812 177.792969 L 179.316406 184.238281 Z M 183.582031 178.09375 L 183.902344 184.574219 L 183.917969 184.757812 L 184.101562 188.488281 L 179.597656 184.4375 Z M 179.582031 184.890625 L 184.019531 188.875 L 180.285156 191.753906 Z M 184.21875 189.140625 L 186.113281 193.007812 L 180.554688 191.972656 Z M 184.285156 185.710938 L 186.933594 192.375 L 188.105469 193.996094 L 186.53125 193.109375 L 184.488281 188.925781 L 184.4375 188.792969 Z M 182.246094 192.925781 L 181.289062 192.441406 L 186.296875 193.378906 L 189.109375 197.414062 Z M 186.964844 193.746094 L 188.574219 194.648438 L 188.671875 194.71875 L 192.371094 196.792969 L 189.8125 197.832031 Z M 190.011719 198.117188 L 192.457031 197.109375 L 191.367188 199.890625 Z M 191.753906 199.855469 L 192.824219 197.128906 L 194.699219 199.488281 Z M 192.457031 200.109375 L 194.046875 199.90625 L 192.957031 200.742188 Z M 201.882812 206.453125 L 197.710938 207.910156 L 196.757812 206.738281 L 199.585938 204.578125 Z M 197.878906 203.152344 L 199.335938 204.34375 L 196.65625 206.386719 L 196.65625 204.660156 L 197.3125 204.375 L 196.40625 201.210938 Z M 196.910156 204.191406 L 195.921875 204.609375 L 192.625 203.757812 L 192.421875 201.664062 L 192.976562 201.164062 L 196.121094 201.480469 Z M 193.359375 200.859375 L 194.851562 199.707031 L 195.972656 201.128906 Z M 195.132812 199.503906 L 195.21875 199.605469 Z M 193.042969 196.726562 L 195.101562 199.453125 L 192.992188 196.792969 Z M 190.328125 189.914062 L 192.824219 196.425781 L 192.839844 196.441406 L 192.925781 196.558594 L 192.789062 196.609375 L 188.808594 194.367188 C 189.742188 191.769531 190.144531 190.429688 190.296875 189.726562 Z M 188.554688 194.046875 L 187.25 192.222656 L 184.238281 184.671875 L 184.085938 181.660156 C 185.292969 183.183594 189.625 188.640625 190.046875 189.125 C 190.09375 189.492188 189.34375 191.835938 188.554688 194.046875 Z M 189.996094 188.539062 C 188.925781 187.21875 185.507812 182.914062 184.070312 181.089844 L 183.917969 177.875 L 188.105469 180.671875 Z M 188.1875 180.335938 L 183.851562 177.441406 L 182.863281 175.03125 L 189.257812 178.378906 Z M 188.503906 180.4375 L 189.558594 178.527344 L 196.675781 181.558594 Z M 197.878906 181.710938 L 190.328125 178.480469 L 201.964844 178.5625 Z M 198.53125 181.625 L 202.433594 178.628906 L 204.609375 180.570312 Z M 204.960938 180.4375 L 202.632812 178.363281 L 206.285156 169.289062 L 208.628906 176.101562 Z M 205.230469 180.65625 L 208.460938 176.839844 L 206.988281 182.011719 Z M 207.054688 200.878906 L 204.15625 200.976562 L 205.765625 198.234375 L 208.074219 197.5625 L 208.476562 198.46875 Z M 209.429688 200.089844 L 207.539062 200.742188 L 208.726562 198.703125 L 211.355469 200.175781 Z M 211.742188 200.023438 L 208.945312 198.449219 L 213.449219 194.484375 Z M 215.023438 195.070312 L 212.277344 199.488281 L 213.933594 194.148438 L 216.328125 194.367188 Z M 213.96875 193.8125 L 213.832031 190.984375 L 216.476562 194.046875 Z M 217.199219 190.96875 L 216.761719 193.847656 L 213.800781 190.429688 L 213.296875 182.144531 Z M 213.433594 189.996094 L 207.269531 182.347656 L 212.914062 181.441406 Z M 215.257812 178.363281 L 213.363281 180.203125 L 213.5 178.878906 L 213.53125 178.695312 L 215.324219 177.472656 C 215.257812 177.976562 215.238281 178.226562 215.257812 178.363281 Z M 226.65625 193.695312 L 227.210938 193.042969 L 227.8125 195.503906 L 225.71875 193.613281 Z M 227.914062 196.140625 L 226.757812 198.117188 L 225.167969 197.53125 L 225.382812 193.761719 L 227.960938 196.074219 Z M 228.148438 195.503906 L 227.476562 192.773438 L 229.519531 191.6875 Z M 227.445312 192.421875 L 227.160156 186.898438 L 229.601562 191.269531 Z M 227.578125 182.128906 L 228.449219 185.058594 L 229.453125 190.347656 L 227.109375 186.164062 Z M 226.839844 185.710938 L 224.882812 182.699219 L 227.308594 181.574219 Z M 227.175781 181.257812 L 224.730469 182.378906 L 223.625 178.8125 Z M 224.363281 182.3125 L 215.589844 178.292969 C 215.589844 178.128906 215.640625 177.660156 215.691406 177.238281 L 223.207031 178.5625 Z M 222.941406 178.175781 L 216.078125 176.972656 L 220.011719 174.292969 Z M 221.417969 168.550781 L 221.25 172.066406 L 219.976562 173.910156 L 215.609375 176.886719 L 215.390625 177.023438 C 215.390625 177.023438 215.390625 177.039062 215.390625 177.039062 L 213.515625 178.3125 L 212.5625 166.273438 L 217.96875 163.648438 L 220.226562 166.109375 Z M 220.296875 165.722656 L 218.320312 163.546875 L 221.550781 163.0625 Z M 221.71875 162.691406 L 218.101562 163.246094 L 215.355469 156.398438 L 224.363281 155.628906 Z M 223.527344 161.285156 L 222.203125 162.339844 L 224.144531 157.152344 Z M 223.878906 161.238281 L 224.679688 155.847656 L 226.15625 159.210938 L 224.816406 161.820312 Z M 226.421875 159.410156 L 231.894531 159.980469 L 234.941406 165.253906 C 233.570312 165.640625 231.542969 166.191406 231.144531 166.242188 L 230.941406 166.175781 L 224.632812 162.910156 Z M 225.050781 166.742188 L 224.613281 163.261719 L 230.589844 166.359375 L 226.320312 168.066406 Z M 227.996094 176.269531 L 227.125 175.785156 L 227.746094 173.472656 L 228.664062 176.839844 Z M 228.882812 176.402344 L 226.671875 168.300781 L 230.839844 166.625 Z M 234.023438 170.042969 L 233.921875 172.015625 L 232.046875 176.035156 L 229.101562 177.074219 L 231.210938 166.542969 C 231.578125 166.492188 232.5 166.273438 234.960938 165.589844 Z M 235.277344 165.152344 L 232.246094 159.929688 L 235.546875 158.039062 L 234.457031 160.164062 L 235.878906 161.972656 L 236.082031 164.449219 Z M 236.214844 161.839844 L 234.859375 160.113281 L 236.199219 157.488281 L 233.351562 157.152344 L 231.628906 150.839844 L 237.421875 156.566406 L 239.414062 163.09375 L 236.265625 162.359375 Z M 236.214844 161.839844 " fill-opacity="1" fill-rule="nonzero"/></g><g clip-path="url(#c2d056a263)"><path fill="#00305e" d="M 327.585938 162.710938 L 331.203125 163.546875 L 329.277344 157.285156 L 331.121094 155.59375 L 328.191406 155.578125 L 322.882812 150.339844 L 322.75 150.238281 L 322.597656 150.121094 L 313.375 142.621094 L 313.242188 142.671875 L 302.277344 147.207031 L 302.207031 147.191406 L 302.160156 147.257812 L 290.492188 158.023438 L 287.277344 160.097656 L 277.953125 160.816406 L 268.359375 160.816406 L 261.179688 166.527344 L 260.925781 167.714844 L 257.210938 168.417969 L 251.785156 172.519531 L 251.71875 172.535156 L 251.71875 172.585938 L 249.007812 174.628906 L 249.761719 183.871094 L 249.761719 183.902344 L 250.296875 190.664062 L 250.332031 190.699219 C 250.332031 190.699219 251.433594 191.953125 252.539062 193.195312 C 253.09375 193.8125 255.234375 196.074219 255.234375 196.074219 C 255.234375 196.074219 253.847656 192.726562 252.605469 189.796875 L 250.964844 178.78125 L 251.519531 175.617188 L 259.753906 173.890625 L 263.054688 179.617188 L 263.121094 179.734375 L 270.503906 184.554688 L 271.273438 191.972656 L 271.390625 192.207031 L 273.363281 193.195312 L 280.914062 198.132812 L 280.964844 198.214844 L 282.503906 200.226562 L 282.503906 200.242188 L 282.523438 200.242188 L 282.574219 200.292969 L 283.527344 200.34375 L 283.996094 200.929688 L 283.792969 201.078125 L 283.394531 201.496094 L 283.644531 203.992188 L 287.277344 204.929688 L 287.644531 204.777344 L 287.644531 206.667969 L 288.933594 208.261719 L 293.890625 206.535156 L 289.46875 202.902344 L 284.464844 196.242188 L 281.9375 189.828125 L 279.761719 180.773438 L 289.152344 182.078125 L 289.21875 182.113281 L 289.269531 182.078125 L 296.234375 180.871094 L 296.300781 180.941406 L 296.300781 180.921875 L 298.15625 182.378906 L 298.140625 182.414062 L 298.175781 182.414062 L 304.738281 190.582031 L 304.902344 193.914062 L 300.015625 198.199219 L 299.546875 197.160156 L 296.835938 197.949219 L 294.859375 201.328125 L 298.457031 201.210938 L 300.769531 200.425781 L 303.296875 200.542969 L 306.5625 195.304688 L 308.203125 194.398438 L 308.335938 194.179688 L 308.839844 190.917969 L 304.535156 181.207031 L 304.585938 180.722656 L 306.761719 178.613281 L 315.785156 182.746094 L 315.820312 182.863281 L 315.867188 182.847656 L 318.09375 186.246094 L 318.429688 192.589844 L 318.414062 192.609375 L 318.429688 192.65625 L 317.828125 193.359375 L 316.605469 193.242188 L 316.371094 193.359375 L 315.585938 195.203125 L 316.136719 197.765625 L 318.210938 198.515625 L 319.519531 196.308594 L 319.601562 196.074219 L 321.277344 191.4375 L 321.292969 191.269531 L 320.085938 184.972656 L 318.984375 181.273438 L 319.015625 181.007812 L 318.832031 181.089844 L 314.78125 178.292969 L 314.765625 178.246094 L 314.730469 178.246094 L 311.582031 174.042969 L 312.890625 172.152344 L 313.074219 168.453125 L 311.851562 165.992188 L 313.257812 162.976562 L 313.273438 162.976562 L 313.289062 162.925781 L 315.046875 161.519531 L 315.96875 162.105469 L 315.585938 162.859375 L 315.566406 162.910156 L 316.070312 166.859375 L 317.425781 168.265625 L 318.898438 172.835938 L 318.078125 175.902344 L 319.132812 176.488281 L 320.15625 177.355469 L 320.273438 177.808594 L 320.355469 177.40625 L 323.621094 176.269531 L 325.59375 172.066406 L 325.695312 170.074219 L 326.648438 165.554688 L 326.800781 165.421875 L 327.789062 164.566406 Z M 316.171875 196.441406 L 315.902344 195.234375 L 316.289062 194.347656 Z M 330.535156 155.796875 L 329.160156 156.933594 L 329.011719 156.433594 L 328.992188 156.398438 L 328.390625 155.796875 Z M 322.449219 150.421875 L 324.171875 156.699219 L 316.488281 148.414062 L 322.429688 150.40625 Z M 321.695312 149.800781 L 316.035156 147.910156 L 313.828125 143.425781 Z M 313.273438 143.074219 L 315.632812 147.859375 L 307.433594 148.011719 Z M 312.421875 143.375 L 306.929688 148.027344 L 302.894531 147.308594 Z M 302.375 147.558594 L 306.511719 148.296875 L 298.777344 152.882812 Z M 301.355469 148.480469 L 298.140625 153.25 L 296.515625 152.949219 Z M 296.199219 153.234375 L 297.722656 153.503906 L 294.960938 155.144531 L 292.148438 156.949219 Z M 295.128906 155.445312 L 298.222656 153.601562 L 298.339844 153.535156 L 307.011719 148.378906 L 307.03125 148.378906 L 307.046875 148.363281 L 315.835938 148.195312 L 324.304688 157.320312 L 323.183594 159.628906 L 317.726562 159.058594 L 316.101562 155.34375 L 316.070312 155.261719 L 314.578125 151.84375 L 308.269531 150.972656 L 302.945312 153.101562 L 302.695312 153.199219 L 291.945312 157.488281 Z M 324.558594 157.605469 L 324.742188 157.503906 L 326.699219 157.738281 L 323.621094 159.496094 Z M 297.40625 168.820312 L 293.605469 178.246094 L 280.816406 178.144531 L 273.917969 174.527344 L 265.679688 169.222656 L 266.585938 166.660156 L 281.753906 162.140625 L 299.011719 164.667969 L 299.078125 164.683594 L 297.4375 168.769531 L 297.40625 168.785156 Z M 274.769531 177.425781 L 264.945312 179.097656 L 273.75 174.914062 Z M 299.378906 164.800781 L 303.429688 166.273438 L 300.097656 175.632812 L 297.753906 168.820312 Z M 299.511719 164.5 L 300.585938 161.855469 L 303.246094 165.839844 Z M 300.214844 176.386719 L 304.46875 178.695312 L 304.21875 181.074219 L 298.625 181.960938 Z M 300.316406 176.066406 L 303.546875 166.976562 L 304.453125 178.328125 Z M 300.753906 161.519531 L 306.328125 156.53125 L 309.054688 163.34375 L 303.699219 165.957031 Z M 300.988281 160.867188 C 301.304688 159.445312 302.257812 155.964844 302.929688 153.550781 L 306.125 156.265625 Z M 303.230469 153.351562 L 308.300781 151.324219 L 314.363281 152.164062 L 315.734375 155.308594 L 306.460938 156.097656 Z M 302.578125 153.601562 C 302.375 154.289062 301.972656 155.761719 301.574219 157.234375 C 300.902344 159.730469 300.652344 160.769531 300.585938 161.21875 L 300.519531 161.269531 L 290.925781 158.238281 Z M 290.441406 158.457031 L 300.316406 161.570312 L 299.195312 164.351562 L 299.078125 164.332031 L 287.695312 160.214844 Z M 287.375 160.464844 L 297.4375 164.097656 L 282.523438 161.90625 Z M 268.542969 161.152344 L 277.984375 161.152344 L 286.003906 160.535156 L 281.734375 161.804688 L 281.667969 161.789062 L 281.667969 161.820312 L 266.734375 166.273438 Z M 268.058594 161.488281 L 265.398438 169.039062 L 261.628906 166.609375 Z M 257.34375 168.734375 L 260.859375 168.066406 L 260.308594 170.644531 L 256.792969 171.414062 L 252.558594 172.351562 Z M 254.347656 194.699219 C 253.445312 193.695312 251.835938 191.871094 250.632812 190.515625 L 250.179688 184.890625 C 251.300781 187.570312 253.445312 192.609375 254.347656 194.699219 Z M 252.089844 188.558594 C 251.367188 186.867188 250.648438 185.160156 250.097656 183.835938 L 250.78125 179.835938 Z M 251.21875 175.382812 L 251.167969 175.699219 L 249.980469 182.546875 L 249.359375 174.796875 L 251.621094 173.089844 Z M 252.003906 172.820312 L 256.105469 171.917969 L 251.601562 175.097656 Z M 259.6875 173.558594 L 252.121094 175.148438 L 256.941406 171.734375 L 260.242188 171.011719 Z M 260.007812 173.675781 L 261.445312 166.894531 L 273.480469 174.664062 L 263.335938 179.484375 Z M 263.605469 179.667969 L 274.671875 177.792969 L 270.601562 184.238281 Z M 274.871094 178.09375 L 275.191406 184.574219 L 275.207031 184.757812 L 275.390625 188.488281 L 270.886719 184.4375 Z M 270.871094 184.890625 L 275.308594 188.875 L 271.574219 191.753906 Z M 275.507812 189.140625 L 277.398438 193.007812 L 271.839844 191.972656 Z M 275.574219 185.710938 L 278.21875 192.375 L 279.390625 193.996094 L 277.816406 193.109375 L 275.777344 188.925781 L 275.726562 188.792969 Z M 273.53125 192.925781 L 272.578125 192.441406 L 277.582031 193.378906 L 280.394531 197.414062 Z M 278.253906 193.746094 L 279.859375 194.648438 L 279.960938 194.71875 L 283.660156 196.792969 L 281.097656 197.832031 Z M 281.300781 198.117188 L 283.746094 197.109375 L 282.65625 199.890625 Z M 283.042969 199.855469 L 284.113281 197.128906 L 285.988281 199.488281 Z M 283.746094 200.109375 L 285.335938 199.90625 L 284.246094 200.742188 Z M 293.167969 206.453125 L 289 207.910156 L 288.046875 206.738281 L 290.875 204.578125 Z M 289.167969 203.152344 L 290.625 204.34375 L 287.945312 206.386719 L 287.945312 204.660156 L 288.597656 204.375 L 287.695312 201.210938 Z M 288.195312 204.191406 L 287.210938 204.609375 L 283.910156 203.757812 L 283.710938 201.664062 L 284.261719 201.164062 L 287.410156 201.480469 Z M 284.648438 200.859375 L 286.136719 199.707031 L 287.257812 201.128906 Z M 286.421875 199.503906 L 286.507812 199.605469 Z M 284.328125 196.726562 L 286.390625 199.453125 L 284.28125 196.792969 Z M 281.617188 189.914062 L 284.113281 196.425781 L 284.128906 196.441406 L 284.210938 196.558594 L 284.078125 196.609375 L 280.09375 194.367188 C 281.03125 191.769531 281.433594 190.429688 281.585938 189.726562 Z M 279.84375 194.046875 L 278.539062 192.222656 L 275.523438 184.671875 L 275.375 181.660156 C 276.578125 183.183594 280.914062 188.640625 281.332031 189.125 C 281.382812 189.492188 280.628906 191.835938 279.84375 194.046875 Z M 281.285156 188.539062 C 280.210938 187.21875 276.796875 182.914062 275.355469 181.089844 L 275.207031 177.875 L 279.390625 180.671875 Z M 279.476562 180.335938 L 275.140625 177.441406 L 274.152344 175.03125 L 280.546875 178.378906 Z M 279.792969 180.4375 L 280.847656 178.527344 L 287.960938 181.558594 Z M 289.167969 181.710938 L 281.617188 178.480469 L 293.253906 178.5625 Z M 289.820312 181.625 L 293.722656 178.628906 L 295.898438 180.570312 Z M 296.25 180.4375 L 293.921875 178.363281 L 297.570312 169.289062 L 299.914062 176.101562 Z M 296.515625 180.65625 L 299.746094 176.839844 L 298.273438 182.011719 Z M 298.339844 200.878906 L 295.445312 200.976562 L 297.054688 198.234375 L 299.363281 197.5625 L 299.765625 198.46875 Z M 300.71875 200.089844 L 298.828125 200.742188 L 300.015625 198.703125 L 302.644531 200.175781 Z M 303.027344 200.023438 L 300.234375 198.449219 L 304.738281 194.484375 Z M 306.308594 195.070312 L 303.566406 199.488281 L 305.222656 194.148438 L 307.617188 194.367188 Z M 305.253906 193.8125 L 305.121094 190.984375 L 307.765625 194.046875 Z M 308.488281 190.96875 L 308.050781 193.847656 L 305.089844 190.429688 L 304.585938 182.144531 Z M 304.71875 189.996094 L 298.558594 182.347656 L 304.199219 181.441406 Z M 306.542969 178.363281 L 304.652344 180.203125 L 304.785156 178.878906 L 304.820312 178.695312 L 306.613281 177.472656 C 306.542969 177.976562 306.527344 178.226562 306.542969 178.363281 Z M 317.945312 193.695312 L 318.496094 193.042969 L 319.101562 195.503906 L 317.007812 193.613281 Z M 319.199219 196.140625 L 318.046875 198.117188 L 316.453125 197.53125 L 316.671875 193.761719 L 319.25 196.074219 Z M 319.433594 195.503906 L 318.765625 192.773438 L 320.808594 191.6875 Z M 318.730469 192.421875 L 318.445312 186.898438 L 320.890625 191.269531 Z M 318.867188 182.128906 L 319.734375 185.058594 L 320.742188 190.347656 L 318.398438 186.164062 Z M 318.128906 185.710938 L 316.171875 182.699219 L 318.597656 181.574219 Z M 318.464844 181.257812 L 316.019531 182.378906 L 314.914062 178.8125 Z M 315.652344 182.3125 L 306.878906 178.292969 C 306.878906 178.128906 306.929688 177.660156 306.980469 177.238281 L 314.496094 178.5625 Z M 314.226562 178.175781 L 307.363281 176.972656 L 311.296875 174.292969 Z M 312.703125 168.550781 L 312.539062 172.066406 L 311.265625 173.910156 L 306.894531 176.886719 L 306.679688 177.023438 C 306.679688 177.023438 306.679688 177.039062 306.679688 177.039062 L 304.804688 178.3125 L 303.847656 166.273438 L 309.257812 163.648438 L 311.515625 166.109375 Z M 311.582031 165.722656 L 309.609375 163.546875 L 312.839844 163.0625 Z M 313.007812 162.691406 L 309.390625 163.246094 L 306.644531 156.398438 L 315.652344 155.628906 Z M 314.8125 161.285156 L 313.492188 162.339844 L 315.433594 157.152344 Z M 315.164062 161.238281 L 315.96875 155.847656 L 317.441406 159.210938 L 316.101562 161.820312 Z M 317.710938 159.410156 L 323.183594 159.980469 L 326.230469 165.253906 C 324.859375 165.640625 322.832031 166.191406 322.429688 166.242188 L 322.230469 166.175781 L 315.917969 162.910156 Z M 316.335938 166.742188 L 315.902344 163.261719 L 321.878906 166.359375 L 317.609375 168.066406 Z M 319.285156 176.269531 L 318.414062 175.785156 L 319.03125 173.472656 L 319.953125 176.839844 Z M 320.171875 176.402344 L 317.960938 168.300781 L 322.128906 166.625 Z M 325.308594 170.042969 L 325.210938 172.015625 L 323.335938 176.035156 L 320.390625 177.074219 L 322.5 166.542969 C 322.867188 166.492188 323.789062 166.273438 326.246094 165.589844 Z M 326.566406 165.152344 L 323.535156 159.929688 L 326.832031 158.039062 L 325.746094 160.164062 L 327.167969 161.972656 L 327.371094 164.449219 Z M 327.503906 161.839844 L 326.148438 160.113281 L 327.488281 157.488281 L 324.640625 157.152344 L 322.917969 150.839844 L 328.707031 156.566406 L 330.699219 163.09375 L 327.554688 162.359375 Z M 327.503906 161.839844 " fill-opacity="1" fill-rule="nonzero"/></g><g fill="#c1d3e0" fill-opacity="1"><g transform="translate(85.022438, 203.011511)"><g><path d="M 10.59375 3.65625 C 9.289062 3.65625 8.265625 3.351562 7.515625 2.75 C 6.773438 2.15625 6.347656 1.289062 6.234375 0.15625 C 5.367188 0.0078125 4.59375 -0.28125 3.90625 -0.71875 C 3.226562 -1.164062 2.691406 -1.785156 2.296875 -2.578125 C 1.898438 -3.367188 1.703125 -4.328125 1.703125 -5.453125 C 1.703125 -6.160156 1.796875 -6.960938 1.984375 -7.859375 C 2.554688 -10.554688 3.582031 -12.578125 5.0625 -13.921875 C 6.539062 -15.265625 8.363281 -15.9375 10.53125 -15.9375 C 11.675781 -15.9375 12.6875 -15.710938 13.5625 -15.265625 C 14.4375 -14.828125 15.113281 -14.175781 15.59375 -13.3125 C 16.082031 -12.445312 16.328125 -11.394531 16.328125 -10.15625 C 16.328125 -9.457031 16.242188 -8.691406 16.078125 -7.859375 C 15.535156 -5.316406 14.578125 -3.378906 13.203125 -2.046875 C 11.835938 -0.710938 10.160156 0.03125 8.171875 0.1875 L 8.0625 0.421875 C 8.195312 0.992188 8.488281 1.410156 8.9375 1.671875 C 9.394531 1.929688 10.066406 2.0625 10.953125 2.0625 C 11.359375 2.0625 11.738281 2.007812 12.09375 1.90625 L 12.296875 1.984375 L 12.296875 3.390625 C 12.066406 3.484375 11.800781 3.550781 11.5 3.59375 C 11.195312 3.632812 10.894531 3.65625 10.59375 3.65625 Z M 7.671875 -1.484375 C 9.304688 -1.484375 10.664062 -1.992188 11.75 -3.015625 C 12.84375 -4.035156 13.625 -5.648438 14.09375 -7.859375 C 14.289062 -8.773438 14.390625 -9.578125 14.390625 -10.265625 C 14.390625 -12.898438 13.050781 -14.21875 10.375 -14.21875 C 7 -14.21875 4.859375 -12.097656 3.953125 -7.859375 C 3.773438 -7.023438 3.6875 -6.265625 3.6875 -5.578125 C 3.6875 -4.179688 4.035156 -3.148438 4.734375 -2.484375 C 5.441406 -1.816406 6.421875 -1.484375 7.671875 -1.484375 Z M 7.671875 -1.484375 "/></g></g></g><g mask="url(#c62a1566f5)"><g transform="matrix(1, 0, 0, 1, 92, 179)"><g clip-path="url(#53bcecf0f4)"><g fill="#818bac" fill-opacity="1"><g transform="translate(0.790892, 24.011495)"><g><path d="M 10.59375 3.65625 C 9.289062 3.65625 8.265625 3.351562 7.515625 2.75 C 6.773438 2.15625 6.347656 1.289062 6.234375 0.15625 C 5.367188 0.0078125 4.59375 -0.28125 3.90625 -0.71875 C 3.226562 -1.164062 2.691406 -1.785156 2.296875 -2.578125 C 1.898438 -3.367188 1.703125 -4.328125 1.703125 -5.453125 C 1.703125 -6.160156 1.796875 -6.960938 1.984375 -7.859375 C 2.554688 -10.554688 3.582031 -12.578125 5.0625 -13.921875 C 6.539062 -15.265625 8.363281 -15.9375 10.53125 -15.9375 C 11.675781 -15.9375 12.6875 -15.710938 13.5625 -15.265625 C 14.4375 -14.828125 15.113281 -14.175781 15.59375 -13.3125 C 16.082031 -12.445312 16.328125 -11.394531 16.328125 -10.15625 C 16.328125 -9.457031 16.242188 -8.691406 16.078125 -7.859375 C 15.535156 -5.316406 14.578125 -3.378906 13.203125 -2.046875 C 11.835938 -0.710938 10.160156 0.03125 8.171875 0.1875 L 8.0625 0.421875 C 8.195312 0.992188 8.488281 1.410156 8.9375 1.671875 C 9.394531 1.929688 10.066406 2.0625 10.953125 2.0625 C 11.359375 2.0625 11.738281 2.007812 12.09375 1.90625 L 12.296875 1.984375 L 12.296875 3.390625 C 12.066406 3.484375 11.800781 3.550781 11.5 3.59375 C 11.195312 3.632812 10.894531 3.65625 10.59375 3.65625 Z M 7.671875 -1.484375 C 9.304688 -1.484375 10.664062 -1.992188 11.75 -3.015625 C 12.84375 -4.035156 13.625 -5.648438 14.09375 -7.859375 C 14.289062 -8.773438 14.390625 -9.578125 14.390625 -10.265625 C 14.390625 -12.898438 13.050781 -14.21875 10.375 -14.21875 C 7 -14.21875 4.859375 -12.097656 3.953125 -7.859375 C 3.773438 -7.023438 3.6875 -6.265625 3.6875 -5.578125 C 3.6875 -4.179688 4.035156 -3.148438 4.734375 -2.484375 C 5.441406 -1.816406 6.421875 -1.484375 7.671875 -1.484375 Z M 7.671875 -1.484375 "/></g></g></g></g></g></g><g fill="#00305e" fill-opacity="1"><g transform="translate(108.003798, 203.011511)"><g><path d="M 10.59375 3.65625 C 9.289062 3.65625 8.265625 3.351562 7.515625 2.75 C 6.773438 2.15625 6.347656 1.289062 6.234375 0.15625 C 5.367188 0.0078125 4.59375 -0.28125 3.90625 -0.71875 C 3.226562 -1.164062 2.691406 -1.785156 2.296875 -2.578125 C 1.898438 -3.367188 1.703125 -4.328125 1.703125 -5.453125 C 1.703125 -6.160156 1.796875 -6.960938 1.984375 -7.859375 C 2.554688 -10.554688 3.582031 -12.578125 5.0625 -13.921875 C 6.539062 -15.265625 8.363281 -15.9375 10.53125 -15.9375 C 11.675781 -15.9375 12.6875 -15.710938 13.5625 -15.265625 C 14.4375 -14.828125 15.113281 -14.175781 15.59375 -13.3125 C 16.082031 -12.445312 16.328125 -11.394531 16.328125 -10.15625 C 16.328125 -9.457031 16.242188 -8.691406 16.078125 -7.859375 C 15.535156 -5.316406 14.578125 -3.378906 13.203125 -2.046875 C 11.835938 -0.710938 10.160156 0.03125 8.171875 0.1875 L 8.0625 0.421875 C 8.195312 0.992188 8.488281 1.410156 8.9375 1.671875 C 9.394531 1.929688 10.066406 2.0625 10.953125 2.0625 C 11.359375 2.0625 11.738281 2.007812 12.09375 1.90625 L 12.296875 1.984375 L 12.296875 3.390625 C 12.066406 3.484375 11.800781 3.550781 11.5 3.59375 C 11.195312 3.632812 10.894531 3.65625 10.59375 3.65625 Z M 7.671875 -1.484375 C 9.304688 -1.484375 10.664062 -1.992188 11.75 -3.015625 C 12.84375 -4.035156 13.625 -5.648438 14.09375 -7.859375 C 14.289062 -8.773438 14.390625 -9.578125 14.390625 -10.265625 C 14.390625 -12.898438 13.050781 -14.21875 10.375 -14.21875 C 7 -14.21875 4.859375 -12.097656 3.953125 -7.859375 C 3.773438 -7.023438 3.6875 -6.265625 3.6875 -5.578125 C 3.6875 -4.179688 4.035156 -3.148438 4.734375 -2.484375 C 5.441406 -1.816406 6.421875 -1.484375 7.671875 -1.484375 Z M 7.671875 -1.484375 "/></g></g></g><g fill="#00305e" fill-opacity="1"><g transform="translate(125.231206, 203.011511)"><g><path d="M 6.859375 0.21875 C 5.878906 0.21875 5.019531 0.046875 4.28125 -0.296875 C 3.550781 -0.640625 2.988281 -1.132812 2.59375 -1.78125 C 2.195312 -2.4375 2 -3.21875 2 -4.125 C 2 -4.582031 2.050781 -5.070312 2.15625 -5.59375 L 4.3125 -15.703125 L 6.15625 -15.703125 L 4 -5.609375 C 3.894531 -5.109375 3.84375 -4.65625 3.84375 -4.25 C 3.84375 -3.320312 4.117188 -2.628906 4.671875 -2.171875 C 5.234375 -1.710938 6.085938 -1.484375 7.234375 -1.484375 C 8.515625 -1.484375 9.5625 -1.832031 10.375 -2.53125 C 11.195312 -3.238281 11.753906 -4.265625 12.046875 -5.609375 L 14.1875 -15.703125 L 16.03125 -15.703125 L 13.875 -5.59375 C 13.570312 -4.21875 13.125 -3.101562 12.53125 -2.25 C 11.9375 -1.40625 11.171875 -0.78125 10.234375 -0.375 C 9.304688 0.0195312 8.179688 0.21875 6.859375 0.21875 Z M 6.859375 0.21875 "/></g></g></g><g fill="#00305e" fill-opacity="1"><g transform="translate(141.416813, 203.011511)"><g><path d="M 12.875 0 L 10.984375 0 L 10.4375 -4.3125 L 3.765625 -4.3125 L 1.40625 0 L -0.640625 0 L 8.125 -15.703125 L 10.734375 -15.703125 Z M 8.96875 -13.796875 L 4.625 -5.859375 L 10.234375 -5.859375 L 9.234375 -13.796875 Z M 8.96875 -13.796875 "/></g></g></g><g fill="#00305e" fill-opacity="1"><g transform="translate(156.173957, 203.011511)"><g><path d="M 9.546875 -15.703125 C 10.847656 -15.703125 11.96875 -15.476562 12.90625 -15.03125 C 13.84375 -14.59375 14.554688 -13.945312 15.046875 -13.09375 C 15.546875 -12.25 15.796875 -11.226562 15.796875 -10.03125 C 15.796875 -9.382812 15.710938 -8.660156 15.546875 -7.859375 C 15.148438 -5.992188 14.550781 -4.484375 13.75 -3.328125 C 12.957031 -2.171875 11.941406 -1.328125 10.703125 -0.796875 C 9.472656 -0.265625 7.972656 0 6.203125 0 L 1.125 0 L 4.453125 -15.703125 Z M 13.5625 -7.859375 C 13.75 -8.742188 13.84375 -9.507812 13.84375 -10.15625 C 13.84375 -11.570312 13.441406 -12.585938 12.640625 -13.203125 C 11.835938 -13.828125 10.632812 -14.140625 9.03125 -14.140625 L 5.96875 -14.140625 L 3.3125 -1.5625 L 6.359375 -1.5625 C 7.671875 -1.5625 8.800781 -1.765625 9.75 -2.171875 C 10.695312 -2.585938 11.488281 -3.253906 12.125 -4.171875 C 12.757812 -5.097656 13.238281 -6.328125 13.5625 -7.859375 Z M 13.5625 -7.859375 "/></g></g></g><g fill="#00305e" fill-opacity="1"><g transform="translate(172.875097, 203.011511)"><g><path d="M 1.125 0 L 4.453125 -15.703125 L 10.09375 -15.703125 C 10.976562 -15.703125 11.71875 -15.550781 12.3125 -15.25 C 12.914062 -14.945312 13.363281 -14.53125 13.65625 -14 C 13.957031 -13.476562 14.109375 -12.882812 14.109375 -12.21875 C 14.109375 -11.875 14.070312 -11.515625 14 -11.140625 C 13.800781 -10.210938 13.378906 -9.4375 12.734375 -8.8125 C 12.085938 -8.1875 11.257812 -7.789062 10.25 -7.625 L 10.1875 -7.40625 C 10.65625 -7.195312 11.003906 -6.878906 11.234375 -6.453125 C 11.460938 -6.023438 11.625 -5.382812 11.71875 -4.53125 L 12.21875 0 L 10.359375 0 C 10.273438 -0.632812 10.148438 -1.703125 9.984375 -3.203125 L 9.8125 -4.796875 C 9.75 -5.367188 9.625 -5.816406 9.4375 -6.140625 C 9.25 -6.460938 8.984375 -6.691406 8.640625 -6.828125 C 8.296875 -6.972656 7.832031 -7.046875 7.25 -7.046875 L 4.46875 -7.046875 L 2.96875 0 Z M 8.609375 -8.609375 C 10.554688 -8.609375 11.71875 -9.503906 12.09375 -11.296875 C 12.15625 -11.617188 12.1875 -11.90625 12.1875 -12.15625 C 12.1875 -12.820312 11.984375 -13.316406 11.578125 -13.640625 C 11.171875 -13.972656 10.570312 -14.140625 9.78125 -14.140625 L 5.96875 -14.140625 L 4.796875 -8.609375 Z M 8.609375 -8.609375 "/></g></g></g><g fill="#00305e" fill-opacity="1"><g transform="translate(187.417436, 203.011511)"><g><path d="M 2.96875 0 L 1.125 0 L 4.453125 -15.703125 L 6.3125 -15.703125 Z M 2.96875 0 "/></g></g></g><g fill="#00305e" fill-opacity="1"><g transform="translate(194.022713, 203.011511)"><g><path d="M 6.953125 0.21875 C 5.972656 0.21875 5.085938 -0.0078125 4.296875 -0.46875 C 3.503906 -0.925781 2.878906 -1.59375 2.421875 -2.46875 C 1.960938 -3.351562 1.734375 -4.398438 1.734375 -5.609375 C 1.734375 -6.328125 1.816406 -7.078125 1.984375 -7.859375 C 2.578125 -10.703125 3.625 -12.757812 5.125 -14.03125 C 6.625 -15.300781 8.515625 -15.9375 10.796875 -15.9375 C 12.203125 -15.9375 13.316406 -15.671875 14.140625 -15.140625 C 14.960938 -14.609375 15.550781 -13.796875 15.90625 -12.703125 L 14.5625 -11.984375 L 14.28125 -11.984375 C 14.03125 -12.804688 13.59375 -13.394531 12.96875 -13.75 C 12.34375 -14.101562 11.5 -14.28125 10.4375 -14.28125 C 8.789062 -14.28125 7.414062 -13.769531 6.3125 -12.75 C 5.207031 -11.726562 4.421875 -10.097656 3.953125 -7.859375 C 3.785156 -7.097656 3.703125 -6.375 3.703125 -5.6875 C 3.703125 -4.769531 3.859375 -3.992188 4.171875 -3.359375 C 4.484375 -2.722656 4.925781 -2.242188 5.5 -1.921875 C 6.070312 -1.597656 6.75 -1.4375 7.53125 -1.4375 C 8.957031 -1.4375 10.09375 -1.757812 10.9375 -2.40625 C 11.789062 -3.0625 12.367188 -4.09375 12.671875 -5.5 L 12.984375 -6.890625 L 8.515625 -6.890625 L 8.8125 -8.375 L 15.078125 -8.375 L 13.3125 0 L 11.609375 0 L 12.046875 -2.109375 L 11.828125 -2.15625 C 10.679688 -0.570312 9.054688 0.21875 6.953125 0.21875 Z M 6.953125 0.21875 "/></g></g></g><g fill="#00305e" fill-opacity="1"><g transform="translate(210.347938, 203.011511)"><g><path d="M 12.875 0 L 10.984375 0 L 10.4375 -4.3125 L 3.765625 -4.3125 L 1.40625 0 L -0.640625 0 L 8.125 -15.703125 L 10.734375 -15.703125 Z M 8.96875 -13.796875 L 4.625 -5.859375 L 10.234375 -5.859375 L 9.234375 -13.796875 Z M 8.96875 -13.796875 "/></g></g></g><g mask="url(#875a98e2f8)"><g transform="matrix(1, 0, 0, 1, 100, 179)"><g clip-path="url(#f1812a2f7c)"><g fill="#00305e" fill-opacity="1"><g transform="translate(0.991702, 24.011495)"><g><path d="M 10.59375 3.65625 C 9.289062 3.65625 8.265625 3.351562 7.515625 2.75 C 6.773438 2.15625 6.347656 1.289062 6.234375 0.15625 C 5.367188 0.0078125 4.59375 -0.28125 3.90625 -0.71875 C 3.226562 -1.164062 2.691406 -1.785156 2.296875 -2.578125 C 1.898438 -3.367188 1.703125 -4.328125 1.703125 -5.453125 C 1.703125 -6.160156 1.796875 -6.960938 1.984375 -7.859375 C 2.554688 -10.554688 3.582031 -12.578125 5.0625 -13.921875 C 6.539062 -15.265625 8.363281 -15.9375 10.53125 -15.9375 C 11.675781 -15.9375 12.6875 -15.710938 13.5625 -15.265625 C 14.4375 -14.828125 15.113281 -14.175781 15.59375 -13.3125 C 16.082031 -12.445312 16.328125 -11.394531 16.328125 -10.15625 C 16.328125 -9.457031 16.242188 -8.691406 16.078125 -7.859375 C 15.535156 -5.316406 14.578125 -3.378906 13.203125 -2.046875 C 11.835938 -0.710938 10.160156 0.03125 8.171875 0.1875 L 8.0625 0.421875 C 8.195312 0.992188 8.488281 1.410156 8.9375 1.671875 C 9.394531 1.929688 10.066406 2.0625 10.953125 2.0625 C 11.359375 2.0625 11.738281 2.007812 12.09375 1.90625 L 12.296875 1.984375 L 12.296875 3.390625 C 12.066406 3.484375 11.800781 3.550781 11.5 3.59375 C 11.195312 3.632812 10.894531 3.65625 10.59375 3.65625 Z M 7.671875 -1.484375 C 9.304688 -1.484375 10.664062 -1.992188 11.75 -3.015625 C 12.84375 -4.035156 13.625 -5.648438 14.09375 -7.859375 C 14.289062 -8.773438 14.390625 -9.578125 14.390625 -10.265625 C 14.390625 -12.898438 13.050781 -14.21875 10.375 -14.21875 C 7 -14.21875 4.859375 -12.097656 3.953125 -7.859375 C 3.773438 -7.023438 3.6875 -6.265625 3.6875 -5.578125 C 3.6875 -4.179688 4.035156 -3.148438 4.734375 -2.484375 C 5.441406 -1.816406 6.421875 -1.484375 7.671875 -1.484375 Z M 7.671875 -1.484375 "/></g></g></g></g></g></g></svg>